<svg width="271" height="74" viewBox="0 0 271 74" fill="none" xmlns="http://www.w3.org/2000/svg">
<path d="M41.366 73.5C39.146 73.5 36.9507 72.8587 34.78 71.576C32.6587 70.3427 29.9453 68.4187 26.64 65.804C24.1733 63.8307 22.052 62.2273 20.276 60.994C18.5493 59.81 16.65 58.7987 14.578 57.96C12.5553 57.1213 10.4833 56.702 8.362 56.702C7.622 56.702 7.05467 56.7267 6.66 56.776L17.686 5.494C14.3807 6.826 11.8153 8.87333 9.99 11.636C8.214 14.3493 7.326 17.6793 7.326 21.626C7.326 23.4513 7.49867 24.734 7.844 25.474C8.18933 26.1647 8.362 26.5593 8.362 26.658C5.698 26.658 3.7 26.1153 2.368 25.03C1.08533 23.8953 0.444 22.0453 0.444 19.48C0.444 16.3227 1.72667 13.264 4.292 10.304C6.90667 7.29466 10.2367 4.87733 14.282 3.052C18.3273 1.17733 22.3727 0.239999 26.418 0.239999C27.1087 0.239999 28.0953 0.289332 29.378 0.387997L17.982 53.52C19.3633 53.8653 20.7693 54.3587 22.2 55C23.68 55.6907 25.456 56.6033 27.528 57.738C30.7347 59.4647 33.4727 60.772 35.742 61.66C38.0113 62.5973 40.3793 63.066 42.846 63.066C45.066 63.066 47.138 62.6713 49.062 61.882C48.6673 65.4833 47.7793 68.32 46.398 70.392C45.066 72.464 43.3887 73.5 41.366 73.5ZM36.9191 55.444C34.1071 55.444 31.7637 54.482 29.8891 52.558C28.0144 50.634 27.0771 47.6247 27.0771 43.53C27.0771 39.8793 27.7924 36.056 29.2231 32.06C30.7031 28.0147 32.8737 24.6107 35.7351 21.848C38.6457 19.036 42.0991 17.63 46.0951 17.63C48.1177 17.63 49.6224 17.9753 50.6091 18.666C51.5957 19.3567 52.0891 20.2693 52.0891 21.404V21.922L52.9031 18H63.5591L58.2311 43.16C58.0337 43.9 57.9351 44.6893 57.9351 45.528C57.9351 47.6493 58.9464 48.71 60.9691 48.71C62.3504 48.71 63.5344 48.0687 64.5211 46.786C65.5571 45.5033 66.3711 43.826 66.9631 41.754H70.0711C68.2457 47.082 65.9764 50.708 63.2631 52.632C60.5991 54.5067 57.9104 55.444 55.1971 55.444C53.1251 55.444 51.4477 54.8767 50.1651 53.742C48.9317 52.558 48.1917 50.856 47.9451 48.636C46.5144 50.6587 44.9111 52.3113 43.1351 53.594C41.4084 54.8273 39.3364 55.444 36.9191 55.444ZM41.7291 48.266C42.9624 48.266 44.1711 47.6987 45.3551 46.564C46.5884 45.38 47.4271 43.7767 47.8711 41.754L51.4231 25.03C51.4231 24.3887 51.1764 23.772 50.6831 23.18C50.1897 22.5387 49.4251 22.218 48.3891 22.218C46.4157 22.218 44.6397 23.3773 43.0611 25.696C41.4824 27.9653 40.2491 30.728 39.3611 33.984C38.4731 37.1907 38.0291 40.0273 38.0291 42.494C38.0291 44.9607 38.3744 46.5393 39.0651 47.23C39.8051 47.9207 40.6931 48.266 41.7291 48.266ZM74.3162 55.444C71.9482 55.444 70.0242 54.704 68.5442 53.224C67.1136 51.744 66.3982 49.524 66.3982 46.564C66.3982 45.3307 66.5956 43.7273 66.9902 41.754L71.4302 20.96H68.9882L69.5802 18H72.0222L74.2422 7.788L85.1942 6.308L82.6782 18H87.1182L86.5262 20.96H82.0862L77.3502 43.16C77.1529 43.9 77.0542 44.6893 77.0542 45.528C77.0542 46.5147 77.2762 47.23 77.7202 47.674C78.2136 48.0687 79.0029 48.266 80.0882 48.266C81.5189 48.266 82.8509 47.674 84.0842 46.49C85.3176 45.2567 86.2056 43.678 86.7482 41.754H89.8562C88.0309 47.082 85.6876 50.708 82.8262 52.632C79.9649 54.5067 77.1282 55.444 74.3162 55.444ZM97.3008 55.444C93.6501 55.444 90.8134 54.5067 88.7908 52.632C86.7681 50.708 85.7567 47.7233 85.7567 43.678C85.7567 40.274 86.4227 36.5247 87.7548 32.43C89.0868 28.3353 91.2574 24.808 94.2668 21.848C97.2761 18.8387 101.099 17.334 105.737 17.334C111.163 17.334 113.877 19.702 113.877 24.438C113.877 27.2007 113.087 29.7413 111.509 32.06C109.93 34.3787 107.833 36.2533 105.219 37.684C102.604 39.0653 99.8168 39.8547 96.8568 40.052C96.7581 41.532 96.7088 42.5187 96.7088 43.012C96.7088 45.4293 97.1281 47.082 97.9668 47.97C98.8054 48.8087 100.162 49.228 102.037 49.228C104.701 49.228 106.97 48.6113 108.845 47.378C110.769 46.1447 112.865 44.27 115.135 41.754H117.651C112.175 50.8807 105.391 55.444 97.3008 55.444ZM97.4488 36.5C99.2741 36.4013 101.001 35.76 102.629 34.576C104.306 33.392 105.638 31.8873 106.625 30.062C107.661 28.2367 108.179 26.3127 108.179 24.29C108.179 22.2673 107.562 21.256 106.329 21.256C104.553 21.256 102.801 22.81 101.075 25.918C99.3974 29.026 98.1888 32.5533 97.4488 36.5ZM120.151 18H130.807L129.845 22.588C131.522 21.108 133.027 19.9733 134.359 19.184C135.74 18.3947 137.22 18 138.799 18C140.378 18 141.611 18.5427 142.499 19.628C143.436 20.7133 143.905 22.0207 143.905 23.55C143.905 24.9807 143.436 26.2387 142.499 27.324C141.562 28.4093 140.254 28.952 138.577 28.952C137.492 28.952 136.752 28.7053 136.357 28.212C136.012 27.6693 135.74 26.9047 135.543 25.918C135.395 25.2767 135.247 24.808 135.099 24.512C134.951 24.216 134.68 24.068 134.285 24.068C133.249 24.068 132.361 24.29 131.621 24.734C130.93 25.1287 130.018 25.844 128.883 26.88L122.963 55H112.307L120.151 18ZM152.783 55.444C149.429 55.444 146.863 54.63 145.087 53.002C143.311 51.3247 142.423 48.9813 142.423 45.972C142.423 44.492 142.596 43.086 142.941 41.754L150.859 4.68L161.811 3.2L158.259 19.85C159.641 19.0113 160.775 18.4687 161.663 18.222C162.551 17.926 163.439 17.778 164.327 17.778C170.149 17.778 173.059 21.996 173.059 30.432C173.059 33.836 172.393 37.4867 171.061 41.384C169.779 45.232 167.608 48.5373 164.549 51.3C161.54 54.0627 157.618 55.444 152.783 55.444ZM156.927 48.266C158.457 48.266 159.887 47.3287 161.219 45.454C162.551 43.53 163.612 41.162 164.401 38.35C165.191 35.4887 165.585 32.7507 165.585 30.136C165.585 28.1627 165.24 26.4853 164.549 25.104C163.859 23.7227 162.897 23.032 161.663 23.032C160.923 23.032 160.085 23.1553 159.147 23.402C158.259 23.5993 157.643 23.92 157.297 24.364L153.227 43.16C153.079 43.752 153.005 44.3193 153.005 44.862C153.005 47.1313 154.313 48.266 156.927 48.266ZM184.702 55.444C181.89 55.444 179.547 54.482 177.672 52.558C175.798 50.634 174.86 47.6247 174.86 43.53C174.86 39.8793 175.576 36.056 177.006 32.06C178.486 28.0147 180.657 24.6107 183.518 21.848C186.429 19.036 189.882 17.63 193.878 17.63C195.901 17.63 197.406 17.9753 198.392 18.666C199.379 19.3567 199.872 20.2693 199.872 21.404V21.922L200.686 18H211.342L206.014 43.16C205.817 43.9 205.718 44.6893 205.718 45.528C205.718 47.6493 206.73 48.71 208.752 48.71C210.134 48.71 211.318 48.0687 212.304 46.786C213.34 45.5033 214.154 43.826 214.746 41.754H217.854C216.029 47.082 213.76 50.708 211.046 52.632C208.382 54.5067 205.694 55.444 202.98 55.444C200.908 55.444 199.231 54.8767 197.948 53.742C196.715 52.558 195.975 50.856 195.728 48.636C194.298 50.6587 192.694 52.3113 190.918 53.594C189.192 54.8273 187.12 55.444 184.702 55.444ZM189.512 48.266C190.746 48.266 191.954 47.6987 193.138 46.564C194.372 45.38 195.21 43.7767 195.654 41.754L199.206 25.03C199.206 24.3887 198.96 23.772 198.466 23.18C197.973 22.5387 197.208 22.218 196.172 22.218C194.199 22.218 192.423 23.3773 190.844 25.696C189.266 27.9653 188.032 30.728 187.144 33.984C186.256 37.1907 185.812 40.0273 185.812 42.494C185.812 44.9607 186.158 46.5393 186.848 47.23C187.588 47.9207 188.476 48.266 189.512 48.266ZM223.209 55.444C220.841 55.444 218.843 55 217.215 54.112C215.587 53.1747 214.379 51.9907 213.589 50.56C212.8 49.08 212.405 47.5507 212.405 45.972C212.405 44.344 212.8 42.938 213.589 41.754C214.329 40.5207 215.242 39.6327 216.327 39.09C218.251 35.6367 219.929 32.1587 221.359 28.656C222.79 25.104 224.147 21.2807 225.429 17.186L236.381 15.706C236.628 22.0207 237.047 28.8533 237.639 36.204C237.886 39.164 238.009 41.31 238.009 42.642C238.009 43.7767 237.911 44.714 237.713 45.454C240.032 44.122 241.808 42.8887 243.041 41.754H246.149C242.992 45.4047 239.218 48.488 234.827 51.004C233.397 52.5333 231.621 53.668 229.499 54.408C227.427 55.0987 225.331 55.444 223.209 55.444ZM220.841 49.598C222.667 49.598 224.196 49.0553 225.429 47.97C226.663 46.8847 227.279 45.1333 227.279 42.716C227.279 41.236 227.131 39.164 226.835 36.5C226.342 30.876 226.021 27.102 225.873 25.178C224.689 29.0753 222.691 33.7373 219.879 39.164C221.014 39.756 221.581 40.6193 221.581 41.754C221.581 42.6913 221.261 43.53 220.619 44.27C220.027 45.01 219.263 45.38 218.325 45.38C217.289 45.38 216.623 45.0593 216.327 44.418C216.327 46.194 216.673 47.5013 217.363 48.34C218.103 49.1787 219.263 49.598 220.841 49.598ZM253.463 55.444C249.862 55.444 247.05 54.5067 245.027 52.632C243.005 50.708 241.993 47.7233 241.993 43.678C241.993 40.274 242.659 36.5247 243.991 32.43C245.323 28.3353 247.494 24.808 250.503 21.848C253.513 18.8387 257.336 17.334 261.973 17.334C267.4 17.334 270.113 19.702 270.113 24.438C270.113 27.2007 269.324 29.7413 267.745 32.06C266.167 34.3787 264.07 36.2533 261.455 37.684C258.841 39.0653 256.053 39.8547 253.093 40.052C252.995 41.1373 252.945 41.8773 252.945 42.272C252.945 46.3667 254.475 48.414 257.533 48.414C258.915 48.414 260.395 48.044 261.973 47.304C263.552 46.564 264.983 45.6267 266.265 44.492C264.933 51.7933 260.666 55.444 253.463 55.444ZM253.611 36.5C255.486 36.4507 257.237 35.834 258.865 34.65C260.543 33.466 261.875 31.9613 262.861 30.136C263.897 28.2613 264.415 26.3127 264.415 24.29C264.415 22.2673 263.799 21.256 262.565 21.256C260.839 21.256 259.112 22.8347 257.385 25.992C255.708 29.1 254.45 32.6027 253.611 36.5Z" fill="url(#paint0_linear)"/>
<defs>
<linearGradient id="paint0_linear" x1="55" y1="17.5" x2="254" y2="19" gradientUnits="userSpaceOnUse">
<stop stop-color="#75FF83"/>
<stop offset="1" stop-color="#00C113"/>
</linearGradient>
</defs>
</svg>
